<?xml version="1.0" standalone="no"?>
<!DOCTYPE svg PUBLIC "-//W3C//DTD SVG 1.1//EN" "http://www.w3.org/Graphics/SVG/1.1/DTD/svg11.dtd" >
<!--
2013-9-30: Created.
-->
<svg>
<metadata>
Created by iconfont
</metadata>
<defs>

<font id="iconfont" horiz-adv-x="1024" >
  <font-face
    font-family="iconfont"
    font-weight="500"
    font-stretch="normal"
    units-per-em="1024"
    ascent="896"
    descent="-128"
  />
    <missing-glyph />
    
    <glyph glyph-name="x" unicode="x" horiz-adv-x="1001"
d="M281 543q-27 -1 -53 -1h-83q-18 0 -36.5 -6t-32.5 -18.5t-23 -32t-9 -45.5v-76h912v41q0 16 -0.5 30t-0.5 18q0 13 -5 29t-17 29.5t-31.5 22.5t-49.5 9h-133v-97h-438v97zM955 310v-52q0 -23 0.5 -52t0.5 -58t-10.5 -47.5t-26 -30t-33 -16t-31.5 -4.5q-14 -1 -29.5 -0.5
t-29.5 0.5h-32l-45 128h-439l-44 -128h-29h-34q-20 0 -45 1q-25 0 -41 9.5t-25.5 23t-13.5 29.5t-4 30v167h911zM163 247q-12 0 -21 -8.5t-9 -21.5t9 -21.5t21 -8.5q13 0 22 8.5t9 21.5t-9 21.5t-22 8.5zM316 123q-8 -26 -14 -48q-5 -19 -10.5 -37t-7.5 -25t-3 -15t1 -14.5
t9.5 -10.5t21.5 -4h37h67h81h80h64h36q23 0 34 12t2 38q-5 13 -9.5 30.5t-9.5 34.5q-5 19 -11 39h-368zM336 498v228q0 11 2.5 23t10 21.5t20.5 15.5t34 6h188q31 0 51.5 -14.5t20.5 -52.5v-227h-327z" />
    

    
    <glyph glyph-name="my" unicode="&#58886;" d="M679.742 383.00300000000004c63.884 47.0291 105.587 122.492 105.587 207.718 0 142.309-115.788 258.094-258.103 258.094-142.313 0-258.103-115.784-258.103-258.094 0-86.2688 42.7067-162.578 107.917-209.453-0.031722-0.013303-0.063445-0.025583-0.096191-0.038886C79.4817 274.61 79.4817-46.75 79.4817-46.75l63.9566 0c0 0 33.1715 383.761 383.787 383.761 351.374 0 383.693-383.761 383.693-383.761l63.9566 0c0 0 0 320.68-294.862 429.65C679.922 382.93499999999994 679.832 382.97 679.742 383.00300000000004L679.742 383.00300000000004ZM333.086 590.721c0 107.053 87.0915 194.129 194.141 194.129 107.047 0 194.141-87.0762 194.141-194.129 0-107.032-87.0915-194.108-194.141-194.108S333.086 483.689 333.086 590.721L333.086 590.721Z"  horiz-adv-x="1024" />

    
    <glyph glyph-name="play" unicode="&#58932;" d="M512-128c-281.6 0-512 230.4-512 512s230.4 512 512 512 512-230.4 512-512S793.6-128 512-128L512-128ZM512 844.8C256 844.8 51.2 640 51.2 384S256-76.79999999999995 512-76.79999999999995 972.8 128 972.8 384 768 844.8 512 844.8L512 844.8ZM384 710.4c32 0 64-25.6 64-64l0-505.6c0-32-32-64-64-64l0 0c-32 0-64 25.6-64 64l0 512C320 684.8 352 710.4 384 710.4L384 710.4 384 710.4ZM640 710.4c32 0 64-25.6 64-64l0-505.6c0-32-32-64-64-64l0 0c-32 0-64 25.6-64 64l0 512C576 684.8 608 710.4 640 710.4L640 710.4 640 710.4Z"  horiz-adv-x="1024" />

    
    <glyph glyph-name="back" unicode="&#58898;" d="M927.859 417.939L168.863 417.939l308.721 308.868c11.6851 11.6903 11.4354 30.8813-0.557702 42.8683-11.9921 11.986-31.1832 12.2265-42.8683 0.536212L75.1992 411.072c-1.99442-1.66287-3.77395-3.58362-5.29459-5.71312-4.04718-5.37338-6.01397-11.8397-5.9055-18.3284-0.12996-7.79452 2.72506-15.5614 8.59577-21.4321l361.566-361.745c11.6851-11.6913 30.8762-11.4498 42.8683 0.535189 11.9931 11.986 12.2428 31.1771 0.557702 42.8683L168.442 356.54600000000005l759.417 0c16.5274 0 29.9256 13.7389 29.9256 30.6941S944.386 417.939 927.859 417.939Z"  horiz-adv-x="1024" />

    
    <glyph glyph-name="collect" unicode="&#58920;" d="M1024.59 563.731c0 148.505-120.388 268.892-268.892 268.892-107.864 0-200.878-63.5217-243.718-155.189C469.139 769.102 376.126 832.6236 268.261 832.6236 119.755 832.6236-0.63138 712.237-0.63138 563.731c0-74.7771 30.5324-142.416 79.8005-191.155l-0.212848-0.132006 399.22-399.22c18.6672-18.6682 48.9355-18.6682 67.6037 0l399.22 399.22-0.189312 0.154519C994.065 421.336 1024.59 488.966 1024.59 563.731ZM803.762 299.12800000000004L545.78 40.82899999999995c-18.6682-18.6702-48.9355-18.6682-67.6037 0l-257.625 258.231-99.3323 99.5667 0.027629 0c-45.445 40.4902-74.0751 99.449-74.0751 165.105 0 122.105 98.9844 221.089 221.089 221.089 98.9486 0 182.692-65.0117 210.9-154.645l0.051165 0c3.79442-14.6005 17.0636-25.38 32.8532-25.38 16.2562 0 29.8345 11.4303 33.1572 26.6899 28.6106 88.954 112.009 153.334 210.474 153.334 122.104 0 221.089-98.9844 221.089-221.089 0-63.3293-26.6356-120.428-69.3055-160.732l0.022513 0L803.762 299.12800000000004Z"  horiz-adv-x="1041" />

    
    <glyph glyph-name="stop" unicode="&#58944;" d="M512.016 896C229.69 896 0 666.31 0 383.98400000000003s229.69-511.984 512.016-511.984c282.294 0 511.984 229.69 511.984 511.984S794.31 896 512.016 896ZM512.016-64.082C264.941-64.082 63.9181 136.94100000000003 63.9181 383.98400000000003S264.941 832.0819 512.016 832.0819c247.043 0 448.066-201.022 448.066-448.098S759.059-64.082 512.016-64.082ZM743.08 423.805l-279.833 171.173-4.12272 2.14126c-2.36497 1.02269-23.9693 9.93927-46.9478 9.93927-39.7571 0-65.4841-26.4301-65.4841-67.2738l0-324.896 1.72579-5.01757c6.0083-17.6734 26.1745-47.5551 63.3748-47.5551l0 0c11.8248 0 24.0652 3.1959 37.5519 10.0991l276.638 156.791 2.71652 1.75775c19.0476 13.4867 39.6292 47.3633 18.4404 85.5224L743.08 423.805ZM419.047 228.63099999999997c-4.02684-2.04538-6.29593-2.36497-7.03099-2.42889-0.383509 0.319591-0.862894 0.862894-1.37424 1.53403l0 312.048c0 1.37424 0.063918 2.49281 0.191754 3.32374 5.91243 0.319591 16.9703-2.46085 21.5084-4.12272l256.919-157.143L419.047 228.63099999999997Z"  horiz-adv-x="1024" />

    
    <glyph glyph-name="pre" unicode="&#58896;" d="M128 793.6V-32c0-17.673 14.327-32 32-32 17.673 0 32 14.327 32 32V793.6c0 17.673-14.327 32-32 32-17.673 0-32-14.327-32-32ZM774.028 752.205l-404.352-331.09c-27.383-22.42-27.435-58.886 0-81.35l404.352-331.09c27.382-22.42 49.676-12.003 49.676 23.366V728.84c0 35.646-22.24 45.83-49.676 23.365Zm-40.546 49.518c69.12 56.597 154.222 16.897 154.222-72.883v-696.8c0-89.481-85.14-129.447-154.222-72.883L329.13 290.24699999999995c-58.7 48.064-58.662 132.353 0 180.386l404.352 331.09Z"  horiz-adv-x="1024" />

    
    <glyph glyph-name="collected" unicode="&#58892;" d="M502.1-11.549999999999954a18.9562 18.9562 0 0 0-13.5 5.625l-315.844 320.625C101.319 386.081 62 471.075 62 553.988 62 687.862 150.875 777.75 283.231 777.75c113.794 0 158.85-50.5687 218.869-121.106C562.119 727.181 607.231 777.75 720.969 777.75c132.356 0 221.288-89.9437 221.288-223.762 0-82.9125-39.375-167.906-110.813-239.4L515.656-5.812999999999988a19.0125 19.0125 0 0 0-13.5-5.68125"  horiz-adv-x="1024" />

    
    <glyph glyph-name="next" unicode="&#58916;" d="M889.6-25.600000000000022V800c0 17.673-14.327 32-32 32-17.673 0-32-14.327-32-32v-825.6c0-17.673 14.327-32 32-32 17.673 0 32 14.327 32 32Zm-646.028 41.395l404.352 331.09c27.383 22.42 27.435 58.886 0 81.35l-404.352 331.09c-27.382 22.42-49.676 12.003-49.676-23.366V39.15999999999997c0-35.646 22.24-45.83 49.676-23.365Zm40.546-49.518c-69.12-56.597-154.222-16.897-154.222 72.883v696.8c0 89.481 85.14 129.447 154.222 72.883l404.352-331.09c58.7-48.064 58.662-132.353 0-180.386l-404.352-331.09Z"  horiz-adv-x="1024" />

    
    <glyph glyph-name="list" unicode="&#58979;" d="M921.699 346.951l-566.083 0c-20.7486 0-37.54 16.7904-37.54 37.54 0 20.7332 16.7914 37.542 37.54 37.542l566.083 0c20.7567 0 37.5461-16.8078 37.5461-37.542C959.245 363.74199999999996 942.455 346.951 921.699 346.951L921.699 346.951ZM921.699 647.275l-566.083 0c-20.7486 0-37.54 16.8088-37.54 37.541 0 20.7312 16.7914 37.54 37.54 37.54l566.083 0c20.7567 0 37.5461-16.8088 37.5461-37.54C959.245 664.0840000000001 942.455 647.275 921.699 647.275L921.699 647.275ZM136.51 9.091999999999984c-41.4644 0-75.0861 33.6166-75.0861 75.0759 0 41.4654 33.6217 75.08 75.0861 75.08 41.4603 0 75.081-33.6156 75.081-75.08C211.591 42.70799999999997 177.97 9.091999999999984 136.51 9.091999999999984L136.51 9.091999999999984ZM136.51 309.41099999999994c-41.4644 0-75.0861 33.6217-75.0861 75.0789 0 41.4674 33.6217 75.083 75.0861 75.083 41.4603 0 75.081-33.6156 75.081-75.083C211.591 343.034 177.97 309.41099999999994 136.51 309.41099999999994L136.51 309.41099999999994ZM136.51 609.736c-41.4644 0-75.0861 33.6156-75.0861 75.08 0 41.4654 33.6217 75.082 75.0861 75.082 41.4603 0 75.081-33.6156 75.081-75.082C211.591 643.351 177.97 609.736 136.51 609.736L136.51 609.736ZM355.616 121.71299999999996l566.083 0c20.7567 0 37.5461-16.7914 37.5461-37.541s-16.7894-37.541-37.5461-37.541l-566.083 0c-20.7486 0-37.54 16.7914-37.54 37.541S334.866 121.71299999999996 355.616 121.71299999999996L355.616 121.71299999999996ZM355.616 121.71299999999996"  horiz-adv-x="1024" />

    
    <glyph glyph-name="search" unicode="&#58931;" d="M754.803 266.586c13.9392-13.312 29.376-27.6224 44.3136-42.5024 54.2528-54.0032 108.378-108.186 162.439-162.374 38.9376-39.0016 40.6848-94.0031 4.3136-130.752-36.6848-37.1264-92.2496-35.3728-131.872 4.1856-65.4976 65.4976-131.187 130.874-196.377 196.748-8.128 8.1856-13.312 8.7488-23.6224 3.1232-233.126-128.436-514.567-1.376-572.877 258.31-47.1872 210.125 93.7472 421.626 308.813 463.372 221.497 42.9376 435.75-115.75 459.501-339.872 8.9344-84.3776-7.6864-163.066-49.44-236.685-1.376-2.4384-2.752-4.8128-3.936-7.3152-0.4416-0.985603-0.4416-2.112-1.2544-6.24Zm-333.369-62.496c150.938 1.1264 271.437 121.689 270.752 271.001-0.6848 149.19-123.437 269.812-273.19 268.628-148.064-1.2544-267.258-123.693-266.445-273.632 0.7552-145.184 124-267.123 268.883-265.997ZM213.056 474.777c0.1856 123.815 106.816 212.128 208.506 207.622 0.2496-4.7488 0.7488-9.62559 0.7488-14.4384 0.128-14.3104 0.0640003-28.6272 0.0640003-42.752-97.4972-8.4352-146.317-74.624-150.938-150.439l-58.3808 0.00640031Z"  horiz-adv-x="1024" />

    
    <glyph glyph-name="listLoop" unicode="&#58889;" d="M905.616 371.034c0 132.931-65.3649 256.56-174.885 331.941v0.031008c-1.24032 0.868224-2.35661 1.9225-3.62794 2.79072l-0.248064-0.403105a30.5739 30.5739 0 0 1-18.4808 5.89152 31.2561 31.2561 0 0 1-29.9537-32.4654 30.6359 30.6359 0 0 1 14.2327-24.3413l-0.124032-0.186049a340.84 340.84 0 0 0 151.071-283.289c0-185.273-148.559-336.189-332.778-340.654l39.1941 39.1941a30.7599 30.7599 0 0 1 11.752 22.8219 31.2251 31.2251 0 0 1-29.9537 32.4654 30.7289 30.7289 0 0 1-23.8762-10.3567l-0.372096 0.372096-116.59-116.652 116.9-113.582 0.31008 0.31008a30.6979 30.6979 0 0 1 23.6281-13.1474 31.2561 31.2561 0 0 1 32.4034 30.0157 30.915 30.915 0 0 1-13.8606 26.5429l0.744192 0.7752-40.3414 39.2251c218.451 4.43414 394.856 183.164 394.856 402.67M487.411 711.347l-38.1398-37.0856 0.744192-0.7752a30.7599 30.7599 0 0 1-13.8606-26.5429c0.682176-17.2405 15.1629-30.6979 32.4034-29.9847a30.6979 30.6979 0 0 1 23.6281 13.1164l0.279072-0.31008 116.869 113.582-116.528 116.59-0.372096-0.31008a30.6979 30.6979 0 0 1-23.9072 10.3257c-17.2094-0.651168-30.6049-15.1939-29.9537-32.4344a30.946 30.946 0 0 1 11.8761-22.8839l41.0546-41.0856C274.324 767.627 99.4075 589.579 99.4075 371.00300000000004c0-134.11 66.4502-259.072 177.676-334.266l34.729 51.4113a340.964 340.964 0 0 0-150.389 282.855c0 182.947 144.931 332.344 325.987 340.344"  horiz-adv-x="1024" />

    
    <glyph glyph-name="random" unicode="&#58987;" d="M844.8 230.39999999999998c-6.4 6.4-16 12.8-25.6 9.6-19.2 0-35.2-16-35.2-35.2 0-9.6 6.4-19.2 12.8-25.6l41.6-41.6c-44.8 6.4-86.4 22.4-121.6 51.2-3.2 0-3.2 3.2-6.4 6.4L332.8 592C268.8 662.4 192 700.8 99.2 700.8c-19.2 0-35.2-16-35.2-35.2s16-32 35.2-32c73.6 0 134.4-32 182.4-86.4l384-400 6.4-6.4c48-38.4 108.8-64 172.8-70.4l-48-44.8c-9.6-6.4-16-19.2-16-28.8 0-19.2 19.2-35.2 38.4-32 9.6 0 19.2 6.4 25.6 12.8l99.2 92.8c16 16 16 41.6 0 57.6l-99.2 102.4Zm-3.2 556.8c-12.8 16-32 19.2-48 6.4-9.6-6.4-12.8-16-12.8-25.6 0-12.8 3.2-22.4 16-28.8l41.6-41.6c-73.6-9.6-140.8-38.4-192-89.6l-115.2-118.4c-12.8-12.8-12.8-32 0-44.8 6.4-6.4 16-9.6 25.6-9.6s19.2 3.2 25.6 9.6l112 118.4c41.6 38.4 92.8 64 147.2 70.4l-44.8-44.8c-6.4-6.4-12.8-16-12.8-25.6 0-19.2 16-35.2 32-35.2 9.6 0 19.2 3.2 28.8 9.6L950.4 640c12.8 12.8 12.8 35.2 0 48l-108.8 99.2m-438.4-448c-9.6 0-19.2-3.2-25.6-9.6l-118.4-121.6c-48-44.8-96-67.2-160-67.2H96c-19.2 0-35.2-16-35.2-35.2s16-32 35.2-32h3.2c83.2 0 147.2 32 211.2 86.4l121.6 124.8c6.4 6.4 9.6 12.8 9.6 22.4 0 9.6-3.2 16-9.6 22.4-9.6 6.4-19.2 9.6-28.8 9.6Z"  horiz-adv-x="1024" />

    
    <glyph glyph-name="single" unicode="&#58989;" d="M928 419.2c-19.2 0-32-12.8-32-32v-86.4c0-108.8-86.4-198.4-198.4-198.4H201.6l41.6 38.4c6.4 6.4 12.8 16 12.8 25.6 0 19.2-16 35.2-35.2 35.2-9.6 0-22.4-3.2-28.8-9.6l-108.8-99.2c-16-12.8-12.8-35.2 0-48l108.8-96c6.4-6.4 19.2-12.8 28.8-12.8 19.2 0 35.2 12.8 38.4 32 0 12.8-6.4 22.4-16 28.8l-48 44.8h499.2c147.2 0 265.6 118.4 265.6 259.2v86.4c0 19.2-12.8 32-32 32ZM96 339.20000000000004c19.2 0 32 12.8 32 32v89.6c0 112 89.6 201.6 198.4 204.8h496l-41.6-38.4c-6.4-6.4-12.8-16-12.8-25.6 0-19.2 16-35.2 35.2-35.2 9.6 0 22.4 3.2 28.8 9.6l105.6 99.2c16 12.8 12.8 35.2 0 48l-108.8 96c-6.4 6.4-19.2 12.8-28.8 12.8-19.2 0-35.2-12.8-38.4-32 0-12.8 6.4-22.4 16-28.8l48-44.8H329.6C182.4 726.4 64 608 64 457.6v-86.4c0-19.2 12.8-32 32-32ZM544 224V544h-48L416 486.4l16-41.6 60.8 41.6V224Z"  horiz-adv-x="1024" />

    
    <glyph glyph-name="logo" unicode="&#58915;" d="M854.656-80.76800000000003H170.944A171.2 171.2 0 0 0 0 90.17600000000004v634.88A171.136 171.136 0 0 0 170.944 896h683.776a171.136 171.136 0 0 0 170.944-170.944v-634.88a171.264 171.264 0 0 0-171.008-170.944ZM170.944 847.168A122.24 122.24 0 0 1 48.832 725.056v-634.88a122.24 122.24 0 0 1 122.112-122.112h683.776a122.24 122.24 0 0 1 122.048 122.112v634.88A122.24 122.24 0 0 1 854.72 847.168H170.944ZM427.328 90.17600000000004a207.744 207.744 0 0 0-207.552 207.488 207.808 207.808 0 0 0 207.552 207.616 207.808 207.808 0 0 0 207.616-207.616 207.744 207.744 0 0 0-207.616-207.488Zm0 366.272a158.976 158.976 0 0 1-158.72-158.784 158.912 158.912 0 0 1 158.72-158.656 158.848 158.848 0 0 1 158.72 158.656 158.848 158.848 0 0 1-158.72 158.784ZM610.496 309.952a24.448 24.448 0 0 0-24.448 24.448V700.672a24.448 24.448 0 0 0 48.896 0v-366.272a24.448 24.448 0 0 0-24.448-24.448ZM805.888 480.832a220.032 220.032 0 0 0-219.84 219.84 24.448 24.448 0 0 0 48.896 0 171.136 171.136 0 0 1 170.944-170.944 24.448 24.448 0 0 0 0-48.896Z"  horiz-adv-x="1025" />

    
    <glyph glyph-name="logoRED" unicode="&#58996;" d="M589.672 690.131v-326.224c-28.4798 18.1235-62.1378 28.4798-103.563 28.4798-88.0286 0-155.344-51.7815-155.344-119.098s67.3161-119.098 155.344-119.098 155.344 51.7815 155.344 119.098V690.131h-51.7815Zm-103.563-481.568c-56.9597 0-103.563 31.0689-103.563 67.3161s46.6034 67.3161 103.563 67.3161 103.563-31.0689 103.563-67.3161-46.6034-67.3161-103.563-67.3161ZM825.278 635.762l-36.2471-36.2471C856.348 527.019 900.362 433.813 900.362 327.66099999999994c0-214.893-173.468-388.362-388.362-388.362S123.638 112.76700000000005 123.638 327.66099999999994c0 204.538 160.524 372.827 362.471 385.773v51.7815C255.681 752.27 71.856 560.677 71.856 327.66099999999994c0-243.373 196.769-440.144 440.144-440.144s440.144 196.769 440.144 440.144c0 119.098-49.1924 227.839-126.864 308.1ZM864.114 672.0070000000001l36.2471 36.2471c-82.8505 82.8505-189.002 139.81-310.689 157.934v-51.7815c106.152-18.1235 201.948-69.9051 274.443-142.399Z"  horiz-adv-x="1024" />

    
    <glyph glyph-name="back2" unicode="&#59005;" d="M514.304-62.976999999999975c-57.876 0-114.084 10.893-166.954 32.489-51.101 20.758-96.927 50.515-136.313 88.434-39.386 37.919-70.293 82.105-91.922 131.269-22.363 50.902-33.711 104.984-33.711 160.737 0 66.712 16.989 132.941 49.098 191.619 31.041 56.686 76.133 106.462 130.439 143.931 15.086 10.412 36.047 7.037 46.828-7.455 10.781-14.493 7.344-34.642-7.743-44.989-45.894-31.749-83.979-73.717-110.146-121.565-27.47-50.162-41.388-104.502-41.388-161.541 0-93.061 37.65-180.563 106.007-246.342 68.324-65.812 159.177-102.059 255.805-102.059 96.595 0 187.482 36.248 255.839 102.06 68.357 65.78 105.974 153.281 105.974 246.342 0 56.975-13.885 111.411-41.388 161.54-26.167 47.816-64.285 89.816-110.179 121.502-15.054 10.346-18.558 30.495-7.744 44.989 10.814 14.492 31.743 17.898 46.795 7.454 54.339-37.469 99.498-87.245 130.507-143.93 32.142-58.678 49.131-124.907 49.131-191.619 0-55.754-11.348-109.836-33.744-160.769-21.597-49.166-52.537-93.351-91.923-131.269-39.385-37.919-85.212-67.643-136.313-88.499-52.903-21.466-109.078-32.327-166.954-32.327h-0.001v-0.002Zm10.08 448.084c-18.524 0-33.544 14.397-33.544 32.264V799.836c0 17.803 15.02 32.296 33.544 32.296 18.525 0 33.578-14.493 33.578-32.296v-382.465c0-17.867-15.052-32.264-33.578-32.264Z"  horiz-adv-x="1024" />

    
    <glyph glyph-name="icon-" unicode="&#58946;" d="M254.771 243.30200000000002c-90.5216 0-163.84-64.1024-163.84-143.36s73.3184-143.36 163.84-143.36 163.84 64.1024 163.84 143.36-73.3184 143.36-163.84 143.36Zm0-245.76c-67.7888 0-122.88 45.8752-122.88 102.4s55.0912 102.4 122.88 102.4 122.88-45.8752 122.88-102.4-55.0912-102.4-122.88-102.4ZM766.771 366.182c-90.5216 0-163.84-64.1024-163.84-143.36s73.3184-143.36 163.84-143.36 163.84 64.1024 163.84 143.36-73.3184 143.36-163.84 143.36Zm0-245.76c-67.7888 0-122.88 45.8752-122.88 102.4s55.0912 102.4 122.88 102.4 122.88-45.8752 122.88-102.4-55.0912-102.4-122.88-102.4ZM398.131 673.3820000000001a20.48 20.48 0 0 0 20.48-20.48v-532.48a20.48 20.48 0 0 0-40.96 0v532.48a20.48 20.48 0 0 0 20.48 20.48ZM912.589 811.008a20.48 20.48 0 0 0 20.48-20.48v-573.44a20.48 20.48 0 0 0-40.96 0v573.44a20.48 20.48 0 0 0 20.48 20.48ZM392.806 672.768l514.253 137.83a20.48 20.48 0 0 0 10.6496-39.5264L403.456 633.242a20.48 20.48 0 0 0-10.6496 39.5264ZM500.531 496.845l-107.725-28.8768a20.48 20.48 0 0 1 10.6496-39.5264l97.0752 26.0096ZM932.25 591.462a20.48 20.48 0 0 1-24.9856 14.5408L541.491 506.88v-40.96l376.218 100.352a20.48 20.48 0 0 1 14.5408 25.1904Z"  horiz-adv-x="1024" />

    
    <glyph glyph-name="collection" unicode="&#59242;" d="M512 678.4l44.8 44.8c99.2 102.4 262.4 102.4 361.6 0 99.2-102.4 99.2-265.6 0-368l-361.6-368c-12.8-12.8-28.8-19.2-44.8-19.2s-32 6.4-44.8 19.2l-361.6 368c-99.2 102.4-99.2 265.6 0 368 99.2 102.4 262.4 102.4 361.6 0l44.8-44.8Zm361.6-278.4c73.6 76.8 73.6 198.4 0 275.2a185.6 185.6 0 0 1-268.8 0l-70.4-67.2c-12.8-12.8-32-12.8-44.8 0l-67.2 70.4a185.6 185.6 0 0 1-268.8 0c-73.6-76.8-73.6-198.4 0-275.2l358.4-371.2 361.6 368Z"  horiz-adv-x="1024" />

    
    <glyph glyph-name="ranking" unicode="&#59266;" d="M160 288c-19.2 0-32-12.8-32-32v-128c0-19.2 12.8-32 32-32h64c19.2 0 32 12.8 32 32v128c0 19.2-12.8 32-32 32h-64Zm0 64h64c54.4 0 96-41.6 96-96v-128c0-54.4-41.6-96-96-96h-64c-54.4 0-96 41.6-96 96v128c0 54.4 41.6 96 96 96Zm320 320c-19.2 0-32-12.8-32-32v-512c0-19.2 12.8-32 32-32h64c19.2 0 32 12.8 32 32v512c0 19.2-12.8 32-32 32h-64Zm0 64h64c54.4 0 96-41.6 96-96v-512c0-54.4-41.6-96-96-96h-64c-54.4 0-96 41.6-96 96v512c0 54.4 41.6 96 96 96Zm320-320c-19.2 0-32-12.8-32-32v-256c0-19.2 12.8-32 32-32h64c19.2 0 32 12.8 32 32v256c0 19.2-12.8 32-32 32h-64Zm0 64h64c54.4 0 96-41.6 96-96v-256c0-54.4-41.6-96-96-96h-64c-54.4 0-96 41.6-96 96v256c0 54.4 41.6 96 96 96Z"  horiz-adv-x="1024" />

    
    <glyph glyph-name="back1" unicode="&#59095;" d="M742.4 25.600000000000022H198.4c-19.2 0-32 12.8-32 32v640c0 19.2 12.8 32 32 32h544c19.2 0 32 12.8 32 32s-12.8 32-32 32h-576c-38.4 0-64-25.6-64-64v-704c0-38.4 25.6-64 64-64h576c19.2 0 32 12.8 32 32 0 12.8-12.8 32-32 32ZM998.4 377.6c0 12.8-6.4 25.6-19.2 25.6l-185.6 185.6c-12.8 12.8-32 12.8-44.8 0-12.8-12.8-12.8-32 0-44.8l140.8-140.8H390.4c-19.2 0-32-12.8-32-32s12.8-32 32-32h499.2l-140.8-140.8c-12.8-12.8-12.8-32 0-44.8 12.8-12.8 32-12.8 44.8 0l185.6 185.6c12.8 12.8 19.2 25.6 19.2 38.4Z"  horiz-adv-x="1024" />

    


  </font>
</defs>
</svg>
