<?xml version="1.0" standalone="no"?><!DOCTYPE svg PUBLIC "-//W3C//DTD SVG 1.1//EN" "http://www.w3.org/Graphics/SVG/1.1/DTD/svg11.dtd"><svg t="1517216469021" class="icon" style="" viewBox="0 0 1024 1024" version="1.1" xmlns="http://www.w3.org/2000/svg" p-id="611" xmlns:xlink="http://www.w3.org/1999/xlink" width="16" height="16"><defs><style type="text/css"></style></defs><path d="M1005.07587318 934.82977659l-156.00602073-156.05820681c-1.63354548-1.56558222-3.62389808-2.3058963-5.35574756-3.54258489 151.93186608-181.61117867 142.83449837-453.17658548-27.69745541-623.70004386-87.40803318-87.40803318-203.55724325-135.56242963-327.15328473-135.56242962-123.54385541 0-239.71369718 48.20294163-327.1059532 135.56242962-180.37934459 180.36842192-180.37934459 473.91387497 0 654.30535586 87.40803318 87.30851555 203.55724325 135.49810725 327.1059532 135.49810726 109.69876859 0 213.49322903-38.09826133 296.59773155-107.72783407 1.25974755 1.63354548 1.98064355 3.62389808 3.44792178 5.2064711l156.16500622 156.07155674c8.25632237 8.25632237 19.1814163 12.40329482 30.00941985 12.40329483s21.73974755-4.14697245 30.00941985-12.40329483c16.67527111-16.59153067 16.67527111-43.44065897 0-60.0601031M488.87307378 856.43537067c-100.90238103 0-195.72083675-39.31310459-267.06284089-110.70486756-147.22298311-147.22298311-147.22298311-386.84323082 0-534.19485866 71.335936-71.30923615 166.18109155-110.58714548 267.06284089-110.58714548s195.83734518 39.25485037 267.04342281 110.58714548c147.390464 147.37711408 147.390464 386.98643911 0 534.19485866-71.22185482 71.38812208-166.15317808 110.70486755-267.04342281 110.70486756z" fill="#8a8a8a" p-id="612"></path></svg>